<?xml version="1.0" encoding="UTF-8" standalone="no"?>
<!-- Generator: Adobe Illustrator 16.0.0, SVG Export Plug-In . SVG Version: 6.00 Build 0)  -->
<!DOCTYPE svg  PUBLIC '-//W3C//DTD SVG 1.1//EN'  'http://www.w3.org/Graphics/SVG/1.1/DTD/svg11.dtd'>
<svg id="Layer_1" xmlns="http://www.w3.org/2000/svg" xml:space="preserve" height="47.333px" viewBox="125.833 276.5 548 47.333" width="548px" version="1.1" y="0px" x="0px" xmlns:xlink="http://www.w3.org/1999/xlink" enable-background="new 125.833 276.5 548 47.333">
				<path d="m349.75 315c0 2.75-2.25 5-5 5h-50c-2.75 0-5-2.25-5-5v-30c0-2.75 2.25-5 5-5h50c2.75 0 5 2.25 5 5v30z" fill="#5EC1EC"/>
				<path d="m348.28 281.47c0.906 0.906 1.469 2.156 1.469 3.531v30c0 1.375-0.562 2.625-1.469 3.531s-2.156 1.469-3.531 1.469h-50c-1.375 0-2.625-0.562-3.531-1.469l57.06-37.06z" fill="#5BBBE6"/>
				<g fill="#fff">
					<path d="m307.3 304.92l-0.457-1.74h-3.015l-0.47 1.74h-2.755l3.028-9.318h3.345l3.065 9.318h-2.74zm-0.97-3.8l-0.4-1.523c-0.094-0.338-0.206-0.775-0.34-1.313-0.133-0.538-0.221-0.923-0.264-1.155-0.037 0.216-0.113 0.571-0.225 1.066s-0.361 1.471-0.746 2.926l1.98-0.02z"/>
					<path d="m315.09 304.92l-1.898-6.685h-0.057c0.089 1.138 0.133 2.022 0.133 2.654v4.03h-2.221v-9.281h3.338l1.937 6.59h0.051l1.897-6.59h3.346v9.281h-2.305v-4.069c0-0.211 0.004-0.444 0.01-0.704 0.006-0.259 0.035-0.891 0.086-1.898h-0.057l-1.873 6.672h-2.4z"/>
					<path d="m328.87 304.92h-5.51v-9.281h5.51v2.013h-3.004v1.46h2.781v2.012h-2.781v1.752h3.004v2.05z"/>
					<path d="m338.85 304.92h-2.9l-1.811-2.9-1.789 2.9h-2.838l3.078-4.748-2.895-4.533h2.781l1.676 2.869 1.611-2.869h2.863l-2.939 4.729 3.16 4.55z"/>
				</g>
				<g fill="#fff">
					<path d="m307.3 304.92l-0.457-1.74h-3.015l-0.47 1.74h-2.755l3.028-9.318h3.345l3.065 9.318h-2.74zm-0.97-3.8l-0.4-1.523c-0.094-0.338-0.206-0.775-0.34-1.313-0.133-0.538-0.221-0.923-0.264-1.155-0.037 0.216-0.113 0.571-0.225 1.066s-0.361 1.471-0.746 2.926l1.98-0.02z"/>
					<path d="m315.09 304.92l-1.898-6.685h-0.057c0.089 1.138 0.133 2.022 0.133 2.654v4.03h-2.221v-9.281h3.338l1.937 6.59h0.051l1.897-6.59h3.346v9.281h-2.305v-4.069c0-0.211 0.004-0.444 0.01-0.704 0.006-0.259 0.035-0.891 0.086-1.898h-0.057l-1.873 6.672h-2.4z"/>
					<path d="m328.87 304.92h-5.51v-9.281h5.51v2.013h-3.004v1.46h2.781v2.012h-2.781v1.752h3.004v2.05z"/>
					<path d="m338.85 304.92h-2.9l-1.811-2.9-1.789 2.9h-2.838l3.078-4.748-2.895-4.533h2.781l1.676 2.869 1.611-2.869h2.863l-2.939 4.729 3.16 4.55z"/>
				</g>
				<path d="m319.75 280" fill="#56B1D9"/>
				<path d="m344.75 281c2.206 0 4 1.794 4 4v30c0 2.206-1.794 4-4 4h-50c-2.206 0-4-1.794-4-4v-30c0-2.206 1.794-4 4-4h50m0-1h-50c-2.75 0-5 2.25-5 5v30c0 2.75 2.25 5 5 5h50c2.75 0 5-2.25 5-5v-30c0-2.75-2.25-5-5-5z" fill="#9BCEE0"/>
			<path d="m269.75 315c0 2.75-2.25 5-5 5h-50c-2.75 0-5-2.25-5-5v-30c0-2.75 2.25-5 5-5h50c2.75 0 5 2.25 5 5v30z" fill="#5565AF"/>
			<path opacity=".04" enable-background="new    " d="m268.28 281.47c0.906 0.906 1.469 2.156 1.469 3.531v30c0 1.375-0.562 2.625-1.469 3.531s-2.156 1.469-3.531 1.469h-50c-1.375 0-2.625-0.562-3.531-1.469l57.06-37.06z" fill="#fff"/>
			<path d="m239.75 280" fill="#56B1D9"/>
			<g fill="#EA564B">
				<path d="m239.75 293.4c-1.833-2.08-4.51-3.4-7.5-3.4-5.522 0-10 4.477-10 10 0 5.521 4.478 10 10 10 2.99 0 5.667-1.32 7.5-3.401-1.552-1.762-2.5-4.064-2.5-6.599s0.95-4.84 2.5-6.6z"/>
				<path d="m239.75 293.4c-1.552 1.762-2.5 4.067-2.5 6.6s0.948 4.837 2.5 6.599c1.552-1.762 2.5-4.064 2.5-6.599s-0.95-4.84-2.5-6.6z"/>
			</g>
			<path d="m247.25 290c-2.99 0-5.667 1.32-7.5 3.4-0.433 0.492-0.812 1.03-1.144 1.6h2.288c0.364 0.625 0.647 1.299 0.871 2h-4.044c-0.203 0.643-0.35 1.309-0.419 2h4.879c0.034 0.33 0.068 0.66 0.068 1 0 0.338-0.02 0.671-0.053 1h-4.895c0.069 0.691 0.216 1.357 0.419 2h4.056c-0.223 0.704-0.522 1.372-0.886 2h-2.285c0.331 0.568 0.711 1.107 1.144 1.599 1.833 2.081 4.51 3.401 7.5 3.401 5.522 0 10-4.479 10-10-0.01-5.52-4.49-10-10.01-10z" fill="#E9D419"/>
				<path d="m264.75 281c2.206 0 4 1.794 4 4v30c0 2.206-1.794 4-4 4h-50c-2.206 0-4-1.794-4-4v-30c0-2.206 1.794-4 4-4h50m0-1h-50c-2.75 0-5 2.25-5 5v30c0 2.75 2.25 5 5 5h50c2.75 0 5-2.25 5-5v-30c0-2.75-2.25-5-5-5z" fill="#7684B7"/>
			<path d="m429.75 315c0 2.75-2.25 5-5 5h-50c-2.75 0-5-2.25-5-5v-30c0-2.75 2.25-5 5-5h50c2.75 0 5 2.25 5 5v30z" fill="#F3F4F4"/>
				<path d="m399.75 280" fill="#fff"/>
					<path d="m386.75 310h-8v-15c0-2.762 3.238-5 6-5h6v15c0 2.76-1.24 5-4 5z" fill="#5565AF"/>
					<path d="m400.75 310h-8v-15c0-2.762 3.238-5 6-5h6v15c0 2.76-1.24 5-4 5z" fill="#EA564B"/>
					<path d="m414.75 310h-8v-15c0-2.762 3.238-5 6-5h6v15c0 2.76-1.24 5-4 5z" fill="#99CD76"/>
				<path opacity=".08" enable-background="new    " d="m428.28 281.47c0.906 0.906 1.469 2.156 1.469 3.531v30c0 1.375-0.562 2.625-1.469 3.531s-2.156 1.469-3.531 1.469h-50c-1.375 0-2.625-0.562-3.531-1.469l57.06-37.06z" fill="#fff"/>
					<path d="m424.75 281c2.206 0 4 1.794 4 4v30c0 2.206-1.794 4-4 4h-50c-2.206 0-4-1.794-4-4v-30c0-2.206 1.794-4 4-4h50m0-1h-50c-2.75 0-5 2.25-5 5v30c0 2.75 2.25 5 5 5h50c2.75 0 5-2.25 5-5v-30c0-2.75-2.25-5-5-5z" fill="#F8F8F9"/>
			<path d="m589.75 315c0 2.75-2.25 5-5 5h-50c-2.75 0-5-2.25-5-5v-30c0-2.75 2.25-5 5-5h50c2.75 0 5 2.25 5 5v30z" fill="#F3F4F4"/>
					<circle cy="300" cx="556.58" r="10" fill="#009FDA"/>
					<path d="m555.75 290c5 0 9.999 4.478 9.999 10 0 5.521-4.999 10-9.999 10v-20z" fill="#009FDA"/>
					<path d="m555.75 310v-20h7.167c5 0 9.999 4.478 9.999 10 0 5.521-4.999 10-9.999 10h-7.17z" fill="#009FDA"/>
					<circle cy="300" cx="556.58" r="9.438" fill="#F3F4F4"/>
						<path d="m561.19 300c0-2.727-2.438-5.008-4.438-5.609v11.218c2-0.6 4.44-2.88 4.44-5.61z" fill="#009FDA"/>
						<path d="m549.31 300c0 2.727 2.438 5.008 4.438 5.609v-11.22c-2 0.6-4.44 2.88-4.44 5.61z" fill="#009FDA"/>
				<path opacity=".08" enable-background="new    " d="m588.28 281.47c0.906 0.906 1.469 2.156 1.469 3.531v30c0 1.375-0.562 2.625-1.469 3.531s-2.156 1.469-3.531 1.469h-50c-1.375 0-2.625-0.562-3.531-1.469l57.06-37.06z" fill="#fff"/>
					<path d="m584.75 281c2.206 0 4 1.794 4 4v30c0 2.206-1.794 4-4 4h-50c-2.206 0-4-1.794-4-4v-30c0-2.206 1.794-4 4-4h50m0-1h-50c-2.75 0-5 2.25-5 5v30c0 2.75 2.25 5 5 5h50c2.75 0 5-2.25 5-5v-30c0-2.75-2.25-5-5-5z" fill="#F8F8F9"/>
			<path d="m509.75 315c0 2.75-2.25 5-5 5h-50c-2.75 0-5-2.25-5-5v-30c0-2.75 2.25-5 5-5h50c2.75 0 5 2.25 5 5v30z" fill="#FFF9F0"/>
				<path d="m464.88 299.94c0 1.002-0.285 1.769-0.854 2.302-0.571 0.532-1.396 0.799-2.473 0.799h-1.724v-6.085h1.91c0.994 0 1.765 0.263 2.312 0.787 0.55 0.52 0.82 1.25 0.82 2.19zm-1.34 0.04c0-1.307-0.578-1.96-1.729-1.96h-0.688v3.961h0.554c1.25 0 1.87-0.67 1.87-2z" fill="#414042"/>
				<path d="m465.98 303.04v-6.085h1.29v6.085h-1.29z" fill="#414042"/>
				<path d="m472.39 301.35c0 0.551-0.196 0.982-0.594 1.299-0.396 0.316-0.945 0.477-1.649 0.477-0.648 0-1.225-0.123-1.725-0.365v-1.199c0.411 0.185 0.759 0.312 1.043 0.389 0.284 0.074 0.545 0.111 0.781 0.111 0.282 0 0.5-0.056 0.651-0.162 0.147-0.107 0.227-0.271 0.227-0.482 0-0.119-0.033-0.225-0.101-0.318-0.065-0.094-0.164-0.184-0.294-0.269s-0.393-0.224-0.788-0.412c-0.371-0.175-0.649-0.344-0.837-0.504s-0.335-0.347-0.445-0.562c-0.111-0.215-0.166-0.465-0.166-0.75 0-0.538 0.182-0.961 0.547-1.269 0.366-0.309 0.869-0.462 1.514-0.462 0.316 0 0.618 0.037 0.905 0.112 0.287 0.074 0.588 0.181 0.901 0.316l-0.416 1.003c-0.325-0.133-0.596-0.228-0.808-0.279-0.213-0.052-0.422-0.079-0.626-0.079-0.245 0-0.433 0.056-0.562 0.171-0.131 0.114-0.196 0.262-0.196 0.445 0 0.114 0.026 0.212 0.079 0.298 0.053 0.085 0.137 0.166 0.252 0.245s0.389 0.221 0.818 0.427c0.567 0.272 0.958 0.545 1.17 0.818 0.22 0.27 0.33 0.61 0.33 1z" fill="#414042"/>
				<path d="m476.08 297.94c-0.486 0-0.861 0.184-1.128 0.547-0.269 0.365-0.399 0.875-0.399 1.526 0 1.356 0.509 2.035 1.527 2.035 0.428 0 0.943-0.104 1.553-0.32v1.082c-0.5 0.209-1.058 0.312-1.674 0.312-0.885 0-1.562-0.27-2.031-0.807-0.469-0.536-0.703-1.307-0.703-2.312 0-0.633 0.116-1.187 0.348-1.662 0.229-0.478 0.561-0.841 0.992-1.095 0.433-0.254 0.938-0.381 1.518-0.381 0.591 0 1.186 0.143 1.781 0.429l-0.416 1.049c-0.229-0.108-0.456-0.202-0.688-0.283-0.23-0.1-0.46-0.14-0.68-0.14z" fill="#414042"/>
				<path d="m487.96 296.96h1.303l-2.066 6.085h-1.407l-2.064-6.085h1.305l1.145 3.621c0.063 0.215 0.131 0.462 0.198 0.748 0.066 0.285 0.109 0.48 0.127 0.592 0.03-0.255 0.134-0.699 0.312-1.34l1.16-3.62z" fill="#414042"/>
				<path d="m493.53 303.04h-3.505v-6.085h3.505v1.058h-2.215v1.336h2.062v1.057h-2.062v1.568h2.215v1.05z" fill="#414042"/>
				<path d="m496.09 300.71v2.335h-1.29v-6.085h1.773c0.827 0 1.438 0.15 1.836 0.452 0.396 0.301 0.595 0.757 0.595 1.371 0 0.357-0.099 0.677-0.295 0.955-0.197 0.279-0.476 0.498-0.836 0.656 0.915 1.366 1.511 2.251 1.789 2.65h-1.432l-1.453-2.335-0.68-0.01zm0-1.05h0.417c0.407 0 0.709-0.068 0.903-0.203 0.193-0.137 0.291-0.351 0.291-0.642 0-0.289-0.101-0.493-0.298-0.616-0.198-0.123-0.505-0.183-0.921-0.183h-0.395l0.01 1.64z" fill="#414042"/>
				<circle cy="300" cx="480.82" r="3.043" fill="#E6A124"/>
			<path d="m509.75 307.5v7.5c0 0.688-0.141 1.344-0.395 1.941-0.256 0.597-0.621 1.137-1.074 1.59s-0.992 0.818-1.59 1.074c-0.6 0.254-1.254 0.395-1.941 0.395h-44.914l49.91-12.5z" fill="#E6A124"/>
			<path opacity=".08" enable-background="new    " d="m508.28 281.47c0.906 0.906 1.469 2.156 1.469 3.531v30c0 1.375-0.562 2.625-1.469 3.531s-2.156 1.469-3.531 1.469h-50c-1.375 0-2.625-0.562-3.531-1.469l57.06-37.06z" fill="#fff"/>
				<path d="m504.75 281c2.206 0 4 1.794 4 4v30c0 2.206-1.794 4-4 4h-50c-2.206 0-4-1.794-4-4v-30c0-2.206 1.794-4 4-4h50m0-1h-50c-2.75 0-5 2.25-5 5v30c0 2.75 2.25 5 5 5h50c2.75 0 5-2.25 5-5v-30c0-2.75-2.25-5-5-5z" fill="#F7F5F2"/>
			<path d="m189.75 315c0 2.75-2.25 5-5 5h-50c-2.75 0-5-2.25-5-5v-30c0-2.75 2.25-5 5-5h50c2.75 0 5 2.25 5 5v30z" fill="#F3F4F4"/>
			<path d="m130.75 290v-5c0-2.75 2.25-5 5-5h48c2.75 0 5 2.25 5 5v5" fill="#5565AF"/>
			<path d="m188.75 310v5c0 2.75-2.25 4-5 4h-48c-2.75 0-5-1.25-5-4v-5" fill="#E6A124"/>
			<g fill="#5565AF">
				<path d="m147.14 303.38c0.406-1.15 0.691-1.887 0.859-2.211l3.375-6.875h2.469l-5.844 11.422h-2.609l-0.992-11.422h2.305l0.398 6.875c0.02 0.234 0.031 0.582 0.031 1.039-0.012 0.537-0.027 0.928-0.047 1.172h0.04z"/>
				<path d="m152.81 305.72l2.438-11.422h2.383l-2.438 11.422h-2.38z"/>
				<path d="m164.93 302.34c0 1.09-0.387 1.949-1.156 2.582-0.771 0.633-1.816 0.949-3.133 0.949-1.152 0-2.078-0.234-2.781-0.703v-2.141c1.004 0.562 1.938 0.844 2.797 0.844 0.582 0 1.039-0.109 1.367-0.332 0.328-0.221 0.492-0.523 0.492-0.91 0-0.223-0.035-0.42-0.105-0.59-0.07-0.168-0.172-0.326-0.301-0.473-0.131-0.146-0.453-0.41-0.969-0.797-0.719-0.518-1.225-1.025-1.516-1.533-0.293-0.505-0.438-1.049-0.438-1.633 0-0.672 0.16-1.271 0.484-1.801 0.322-0.528 0.781-0.939 1.379-1.234 0.596-0.294 1.281-0.441 2.059-0.441 1.129 0 2.164 0.258 3.102 0.773l-0.852 1.82c-0.812-0.385-1.562-0.578-2.25-0.578-0.434 0-0.787 0.117-1.062 0.352-0.277 0.234-0.414 0.545-0.414 0.93 0 0.318 0.086 0.596 0.258 0.832 0.172 0.237 0.557 0.551 1.156 0.941 0.629 0.417 1.102 0.877 1.414 1.379 0.31 0.5 0.46 1.09 0.46 1.76z"/>
				<path d="m172.6 303h-3.695l-1.344 2.719h-2.5l5.984-11.469h2.914l1.148 11.469h-2.32l-0.18-2.72zm-0.12-2.04l-0.203-2.734c-0.053-0.682-0.078-1.341-0.078-1.977v-0.281c-0.23 0.625-0.514 1.287-0.852 1.984l-1.469 3.008h2.6z"/>
			</g>
			<path d="m159.75 280" fill="#fff"/>
			<path opacity=".04" enable-background="new    " d="m188.28 281.47c0.906 0.906 1.469 2.156 1.469 3.531v30c0 1.375-0.562 2.625-1.469 3.531s-2.156 1.469-3.531 1.469h-50c-1.375 0-2.625-0.562-3.531-1.469l57.06-37.06z" fill="#fff"/>
				<path d="m184.75 281c2.206 0 4 1.794 4 4v30c0 2.206-1.794 4-4 4h-50c-2.206 0-4-1.794-4-4v-30c0-2.206 1.794-4 4-4h50m0-1h-50c-2.75 0-5 2.25-5 5v30c0 2.75 2.25 5 5 5h50c2.75 0 5-2.25 5-5v-30c0-2.75-2.25-5-5-5z" fill="#F8F8F9"/>
			<path d="m669.75 314.21c0 2.75-2.25 5-5 5h-50c-2.75 0-5-2.25-5-5v-30c0-2.75 2.25-5 5-5h50c2.75 0 5 2.25 5 5v30z" fill="#CDCDCD"/>
		<rect y="285.5" x="611.5" height="8" width="59" fill="#424143"/>
		<rect y="297.5" x="617.5" height="8" width="36" fill="#fff"/>
		<rect y="300.5" x="620.5" height="2" width="29" fill="#424143"/>
				<path d="m664.75 280.21c2.206 0 4 1.794 4 4v30c0 2.206-1.794 4-4 4h-50c-2.206 0-4-1.794-4-4v-30c0-2.206 1.794-4 4-4h50m0-1h-50c-2.75 0-5 2.25-5 5v30c0 2.75 2.25 5 5 5h50c2.75 0 5-2.25 5-5v-30c0-2.75-2.25-5-5-5z" fill="#DFDEDD"/>
		<rect y="297.5" x="656.5" height="8" width="8" fill="#fff"/>
		<rect y="300.5" x="657.5" height="2" width="6" fill="#424143"/>
		<circle r="7.75" cy="301.4" stroke="#E9564B" cx="660" stroke-miterlimit="10" stroke-width="2" fill="none"/>
</svg>
