<svg xmlns="http://www.w3.org/2000/svg" width="250" height="50" viewBox="0 0 250 50"><style>.a{fill:#FFF;}.b{fill:#2D2E2F;}</style><polyline points="-10.7 -110.7 261.5 -110.7 261.5 161.5 -10.7 161.5 -10.7 -110.7 -10.7 -110.7 " class="a"/><path d="M27.1 15.8c4-2.7 8.2-3.8 11.7-3.2V6.3H8.9v30.2h10.2c-0.1-0.2-0.2-0.4-0.3-0.6C15.9 29.8 19.6 20.9 27.1 15.8L27.1 15.8z" fill="#666"/><path d="M38.6 16c-7.9 0-14.3 6.4-14.3 14.3 0 0.9 0.1 1.8 0.2 2.6 0.4 1.5 1.2 2 1.9 2.3 0.4 0.2 0.7 0.2 0.9 0.2 1.5 0.1 3.1-0.3 4.6-1.2 2-1.3 3.5-3.3 4.3-5.6 -2.5 0.3-4.9 0.7-7.3 1.1l0-4.5 16-1.1 -0.1 15.1L40.1 39.7c0 0 0 0 0 0 0-0.2 0-0.3 0.1-0.5 0.2-1.3 0.3-2.6 0.5-3.9 0.1-0.8 0.1-1.5 0.2-2.3 -0.6 0.8-1.3 1.6-2.1 2.3 -0.7 0.6-1.5 1.2-2.4 1.8 -0.5 0.3-1 0.6-1.6 0.9 -1.1 0.5-2.2 1-3.3 1.2 -0.9 0.2-2.5 0.3-3.8 0.4 2.6 3 6.5 5 10.8 5 7.9 0 14.3-6.4 14.3-14.3C52.9 22.4 46.5 16 38.6 16L38.6 16z" fill="#F26F28"/><path d="M84.2 14.5c-0.7-3.5-3.7-4.4-6.8-4.4 -7.1 0-9.7 6.2-9.5 11.6 0.3 7.4 2.6 11.5 10.9 11.6 2 0 3.9-0.3 5.8-0.9v-8.2h-6.6v-3.4h10.6v14.3c-3.3 1-6.7 1.7-10 1.7 -4.1 0-7.4-0.5-10.6-3.3 -3.2-2.8-4.3-7.7-4.3-11.8 0-3 1-6.3 2.5-8.9 2.5-4.4 6.8-6.2 11.7-6.2 4.9 0 10.3 2.2 10.6 7.8H84.2L84.2 14.5z" class="b"/><path d="M96.6 26.9c-0.3 3.5 1.2 7.2 5.1 7.2 3 0 4.5-1.2 4.9-4.1h4c-0.6 4.6-4.1 6.9-9 6.9 -6.5 0-9-4.6-9-10.5 0-5.9 3-10.8 9.4-10.8 6 0.1 8.9 3.9 8.9 9.5v1.9H96.6L96.6 26.9zM106.8 24.2c0.1-3.4-1.4-6-5.1-6 -3.2 0-5.1 2.7-5.1 6H106.8L106.8 24.2z" class="b"/><path d="M133.6 26.1c0 6.3-3.4 10.7-10 10.7 -6.6 0-10-4.4-10-10.7 0-6.3 3.4-10.7 10-10.7C130.2 15.5 133.6 19.9 133.6 26.1L133.6 26.1zM123.5 34.1c4.5 0 6-3.6 6-7.9 0-4.3-1.5-7.9-6-7.9 -4.5 0-6 3.6-6 7.9C117.5 30.4 119 34.1 123.5 34.1L123.5 34.1z" class="b"/><polygon points="137.8 12.9 129 12.9 129 7.2 154.9 7.2 154.9 12.9 145.9 12.9 145.9 36.2 137.8 36.2 137.8 12.9 " class="b"/><path d="M159.2 19.8h0.1c0.9-3.3 3.4-4.5 6.7-4.4v6.5c-0.6 0-1.1 0-1.6 0 -4 0-5.3 2.4-5.2 6.3v8.1h-7.6V21.3c0-1.8 0-3-0.2-5.2h7.7L159.2 19.8 159.2 19.8z" class="b"/><path d="M183.2 34c-1.7 2-3.7 2.8-6.3 2.8 -4.3 0-7.5-2.8-7.5-7.3V16.1h7.6v11.8c0.1 2 0.6 4.1 2.9 4.1 3.8 0 3.3-4.1 3.3-4.4V16.1h7.6v15c0 1.8 0 3 0.2 5.2h-7.7L183.2 34 183.2 34z" class="b"/><path d="M206.8 22.3c0-0.7-0.1-1.3-0.5-1.7 -0.4-0.4-1-0.7-2.1-0.7 -1.1 0-1.8 0.6-1.8 1.8 0 1.5 3.1 1.4 7.9 2.9 2.4 0.8 4.1 2.2 4.1 5.5 0 5.3-5 6.7-9.6 6.7 -4.9 0-9.7-1-9.7-7.1h7.2c-0.1 0.6 0.1 1.3 0.5 1.8s1.1 0.9 1.8 0.9c1.5 0 2.6-0.6 2.6-1.8 0-3.6-11.9-1.4-11.9-8.8 0-5 5.3-6.3 9.3-6.3 4.8 0 9.2 1.2 9.5 6.8H206.8L206.8 22.3z" class="b"/><path d="M220.3 16.1v-3l7.6-2.9v5.9h4.4v4.8h-4.4v8c0 0.5-0.3 3.1 1.4 3.1 1 0 2 0 2.9-0.1v4.5c-1.7 0.3-3 0.4-4.1 0.4 -5.2 0-8.3-0.7-7.9-6.9v-9h-3.9v-4.8H220.3L220.3 16.1z" class="b"/><path d="M241.6 18.1c0 0.8-0.3 1.4-0.8 2 -0.5 0.5-1.2 0.8-2 0.8 -0.8 0-1.4-0.3-2-0.8 -0.5-0.5-0.8-1.2-0.8-2 0-0.8 0.3-1.4 0.8-2 0.5-0.5 1.2-0.8 2-0.8 0.8 0 1.4 0.3 2 0.8C241.3 16.7 241.6 17.4 241.6 18.1L241.6 18.1zM240.9 18.1c0-0.6-0.2-1.1-0.6-1.5 -0.4-0.4-0.9-0.7-1.5-0.7 -0.6 0-1.1 0.2-1.5 0.7 -0.4 0.4-0.6 0.9-0.6 1.5 0 0.6 0.2 1.1 0.6 1.5 0.4 0.4 0.9 0.7 1.5 0.7 0.6 0 1.1-0.2 1.5-0.7C240.7 19.2 240.9 18.7 240.9 18.1L240.9 18.1zM239.1 19.6c0-0.2 0-0.3 0-0.5 0-0.2 0-0.4-0.1-0.5 -0.1-0.1-0.2-0.2-0.3-0.2 0 0-0.1 0-0.2 0 0 0.5 0 1 0 1.3 -0.1 0-0.2 0-0.4 0 -0.1 0-0.3 0-0.4 0v-3c0.6 0 1 0 1.2 0 0.3 0 0.5 0.1 0.7 0.2 0.2 0.1 0.2 0.3 0.2 0.5 0 0 0 0.1 0 0.1 0 0.1 0 0.1 0 0.1 0 0.2 0 0.3-0.1 0.4 -0.1 0.1-0.2 0.2-0.3 0.2 0.2 0.1 0.4 0.3 0.4 0.4 0.1 0.2 0.1 0.4 0.1 0.5 0 0 0 0.2 0 0.5H239.1L239.1 19.6zM239.2 17.5c0 0 0 0 0-0.1 0 0 0 0 0-0.1 0-0.1 0-0.2-0.1-0.2 -0.1-0.1-0.1-0.1-0.2-0.1 0 0-0.1 0-0.2 0 -0.1 0-0.2 0-0.2 0v0.8c0.2 0 0.4 0 0.4 0 0.1 0 0.2 0 0.2-0.1C239.2 17.7 239.2 17.7 239.2 17.5L239.2 17.5z" class="b"/><path d="M58.3 31.1c0 8.9-8.4 16.2-18.7 16.2S20.8 40 20.8 31.1c0-8.9 8.4-16.2 18.7-16.2S58.3 22.1 58.3 31.1L58.3 31.1z" class="a"/><path d="M38.7 16c-7.9 0-14.3 6.4-14.3 14.3 0 0.9 0.1 1.8 0.2 2.6 0.4 1.5 1.2 2 1.9 2.3 0.4 0.2 0.7 0.2 0.9 0.2 1.5 0.1 3.1-0.3 4.6-1.2 2-1.3 3.5-3.3 4.3-5.6 -2.5 0.3-4.9 0.7-7.3 1.1l0-4.5 16-1.1 -0.1 15.1L40.2 39.7c0 0 0 0 0 0 0-0.2 0-0.3 0.1-0.5 0.2-1.3 0.3-2.6 0.5-3.9 0.1-0.8 0.1-1.5 0.2-2.3 -0.6 0.8-1.3 1.6-2.1 2.3 -0.7 0.6-1.5 1.2-2.4 1.8 -0.5 0.3-1 0.6-1.6 0.9 -1.1 0.5-2.2 1-3.3 1.2 -0.9 0.2-2.5 0.3-3.8 0.4 2.6 3 6.5 5 10.8 5 7.9 0 14.3-6.4 14.3-14.3C52.9 22.4 46.6 16 38.7 16L38.7 16z" fill="#999"/></svg>